<?xml version="1.0" standalone="no"?><!DOCTYPE svg PUBLIC "-//W3C//DTD SVG 1.1//EN" "http://www.w3.org/Graphics/SVG/1.1/DTD/svg11.dtd">
<svg
	t="1650612906630"
	class="icon"
	viewBox="0 0 1024 1024"
	version="1.1"
	xmlns="http://www.w3.org/2000/svg"
	p-id="8601"
	xmlns:xlink="http://www.w3.org/1999/xlink"
	width="16"
	height="16"
>
	<defs><style type="text/css"></style></defs>
	<path
		fill="currentColor"
		d="M455.111111 665.220741l-168.96-169.14963 53.475556-53.475555L455.111111 557.89037l229.262222-229.072592 53.475556 53.475555z"
	></path>
	<path
		fill="currentColor"
		d="M511.620741 965.973333l-15.54963-7.205926C395.377778 912.308148 161.185185 793.41037 161.185185 696.888889V136.533333l16.308148-11.377777c9.481481-6.447407 98.797037-63.525926 334.506667-63.525926S837.025185 118.708148 846.506667 125.155556l16.308148 11.377777v560.355556c0 103.917037-234.761481 218.074074-335.644445 262.257778l-15.549629 6.826666zM237.037037 179.579259v517.30963c4.361481 31.857778 131.223704 117.191111 275.342222 185.837037 145.635556-65.801481 274.583704-152.651852 274.583704-185.837037V179.579259c-32.616296-14.222222-116.811852-42.097778-274.962963-42.097778-157.771852 0-241.967407 27.685926-274.962963 42.097778z"
	></path>
</svg>
