<?xml version="1.0" encoding="UTF-8"?>
<svg
	width="16px"
	height="16px"
	viewBox="0 0 16 16"
	version="1.1"
	xmlns="http://www.w3.org/2000/svg"
	xmlns:xlink="http://www.w3.org/1999/xlink"
>
	<g stroke="none" stroke-width="1" fill="none" fill-rule="evenodd">
		<path
			d="M8,0 C9.1045695,-2.02906125e-16 10,0.8954305 10,2 L10,4 L13,4 C14.6568542,4 16,5.34314575 16,7 L16,9 C16,9.55228475 15.5522847,10 15,10 L15,15 C15,15.5522847 14.5522847,16 14,16 L2,16 C1.44771525,16 1,15.5522847 1,15 L1,10 C0.44771525,10 0,9.55228475 0,9 L0,7 C0,5.34314575 1.34314575,4 3,4 L6,4 L6,2 C6,0.8954305 6.8954305,2.02906125e-16 8,0 Z M13,10 L3,10 L3,14 L6,14 L6,12 L7,12 L7,14 L8,14 L8,11 L9,11 L9,14 L10,14 L10,12 L11,12 L11,14 L13,14 L13,10 Z M13,6 L3,6 C2.48716416,6 2.06449284,6.38604019 2.00672773,6.88337887 L2,7 L2,8 L14,8 L14,7 C14,6.48716416 13.6139598,6.06449284 13.1166211,6.00672773 L13,6 Z"
			fill="currentColor"
		></path>
	</g>
</svg>
