<?xml version="1.0" encoding="UTF-8"?>
<svg
	width="16px"
	height="16px"
	viewBox="0 0 16 16"
	version="1.1"
	xmlns="http://www.w3.org/2000/svg"
	xmlns:xlink="http://www.w3.org/1999/xlink"
>
	<g stroke="none" stroke-width="1" fill="none" fill-rule="evenodd">
		<g transform="translate(-282.000000, -408.000000)" fill="currentColor">
			<g transform="translate(30.000000, 100.000000)">
				<g transform="translate(240.000000, 298.000000)">
					<g>
						<g transform="translate(12.000000, 10.000000)">
							<path
								d="M10.009222,0 C10.5490248,0 11,0.451909848 11,1.0093689 L11,1.0093689 L11,2.9906311 C11,2.99402856 10.999984,2.99742159 10.9999521,3.00081014 L14.9991283,3 C15.5553691,3 16,3.44771525 16,4 L16,4 L15.9932664,4.11733256 C15.9354509,4.61727982 15.5124112,5 14.9991283,5 L14.9991283,5 L14,5 L14,13.9972399 C14,15.0560384 13.1806424,15.9183232 12.1413688,15.9945252 L11.9914698,16 L4.0085302,16 C2.90195036,16 2,15.1033337 2,13.9972399 L2,13.9972399 L2.00000099,5.00074361 L2.00000099,5.00074361 L1.00087166,5 C0.444630861,5 0,4.55228475 0,4 L0,4 L0.00673359561,3.88266744 C0.064549055,3.38272018 0.487588802,3 1.00087166,3 L1.00087166,3 L5.001,3 L5,2.9906311 L5,1.0093689 C5,0.443353176 5.44358641,0 5.99077797,0 L5.99077797,0 Z M11.0029699,5 L4.99703014,5 C4.4463856,5 4,5.4463114 4,5.99754465 L4,13.0024554 C4,13.553384 4.45303631,14 4.99703014,14 L11.0029699,14 C11.5536144,14 12,13.5536886 12,13.0024554 L12,5.99754465 C12,5.44661595 11.5469637,5 11.0029699,5 Z M9.5,7 C9.76806641,7 10,7.22282734 10,7.49769878 L10,7.49769878 L10,11.5023012 C10,11.7851562 9.77614237,12 9.5,12 L9.5,12 L9.41225137,11.9919814 C9.18325617,11.9498403 9,11.7466314 9,11.5023012 L9,11.5023012 L9,7.49769878 C9,7.21484375 9.22385763,7 9.5,7 Z M6.5,7 C6.76806641,7 7,7.22282734 7,7.49769878 L7,7.49769878 L7,11.5023012 C7,11.7851562 6.77614237,12 6.5,12 L6.5,12 L6.41225137,11.9919814 C6.18325617,11.9498403 6,11.7466314 6,11.5023012 L6,11.5023012 L6,7.49769878 C6,7.21484375 6.22385763,7 6.5,7 Z M9,2 L7,2 L7,3 L9,3 L9,2 Z"
							></path>
						</g>
					</g>
				</g>
			</g>
		</g>
	</g>
</svg>
