<?xml version="1.0" encoding="UTF-8"?>
<svg
	width="16px"
	height="16px"
	viewBox="0 0 16 16"
	version="1.1"
	xmlns="http://www.w3.org/2000/svg"
	xmlns:xlink="http://www.w3.org/1999/xlink"
>
	<g stroke="none" stroke-width="1" fill="none" fill-rule="evenodd">
		<g transform="translate(-378.000000, -408.000000)" fill="currentColor">
			<g transform="translate(30.000000, 100.000000)">
				<g transform="translate(336.000000, 298.000000)">
					<g>
						<g transform="translate(12.000000, 10.000000)">
							<path
								d="M13.8837004,0.721948793 L15.2780512,2.11629965 C16.2406496,3.07889804 16.2406496,4.63957839 15.2780512,5.60217679 L4.88022799,16 L-1.77635684e-15,16 L-1.77635684e-15,11.119772 L10.3978232,0.721948793 C11.3604216,-0.240649598 12.921102,-0.240649598 13.8837004,0.721948793 Z M15,14 C15.5522847,14 16,14.4477153 16,15 C16,15.5522847 15.5522847,16 15,16 L11,16 C10.4477153,16 10,15.5522847 10,15 C10,14.4477153 10.4477153,14 11,14 L15,14 Z M9.267,4.681 L2,11.947 L2,14 L4.051,14 L11.318,6.732 L9.267,4.681 Z M11.8849649,2.07659133 L11.8120368,2.13616236 L10.681,3.267 L12.732,5.318 L13.8638376,4.18796322 C14.0226937,4.02910714 14.0425507,3.78388811 13.9234087,3.60344129 L13.8638376,3.53051321 L12.4694868,2.13616236 C12.3106307,1.97730627 12.0654117,1.95744926 11.8849649,2.07659133 Z"
							></path>
						</g>
					</g>
				</g>
			</g>
		</g>
	</g>
</svg>
