<?xml version="1.0" encoding="UTF-8"?>
<svg
	width="16px"
	height="16px"
	viewBox="0 0 16 16"
	version="1.1"
	xmlns="http://www.w3.org/2000/svg"
	xmlns:xlink="http://www.w3.org/1999/xlink"
>
	<g stroke="none" stroke-width="1" fill="none" fill-rule="evenodd">
		<path
			d="M14,0 L2,0 C1.44771525,0 1,0.44767915 1,0.999919368 L1,3.99967747 L1.00796776,4.12570521 C1.03963086,4.37499529 1.16441182,4.60502974 1.35985338,4.76786829 L5,7.80137091 L5,12.9989518 C5,13.3776933 5.21400238,13.7239285 5.5527864,13.8933069 L9.5527864,15.8931456 L9.65861533,15.9389344 C10.2978691,16.1739593 11,15.7029904 11,14.9987905 L11,7.80037099 L14.6401466,4.76786829 C14.8681618,4.57788999 15,4.29645059 15,3.99967747 L15,0.999919368 C15,0.44767915 14.5522847,0 14,0 Z M13,1.99983874 L13,3.52971537 L9.35985338,6.56421791 L9.26812496,6.6510149 C9.09686074,6.8349204 9,7.07803177 9,7.33240873 L9,13.380921 L7,12.3810016 L7,7.33240873 L6.99203224,7.20638099 C6.96036914,6.95709091 6.83558818,6.72705646 6.64014662,6.56421791 L3,3.53071529 L3,1.99983874 L13,1.99983874 Z"
			fill="currentColor"
		></path>
	</g>
</svg>
