<?xml version="1.0" encoding="UTF-8"?>
<svg
	width="16px"
	height="16px"
	viewBox="0 0 16 16"
	version="1.1"
	xmlns="http://www.w3.org/2000/svg"
	xmlns:xlink="http://www.w3.org/1999/xlink"
>
	<g stroke="none" stroke-width="1" fill="none" fill-rule="evenodd">
		<path
			d="M15,0 C15.5522847,0 16,0.44771525 16,1 L16,1 L16,5 C16,5.55228475 15.5522847,6 15,6 L15,6 L11,6 C10.4477153,6 10,5.55228475 10,5 C10,4.44771525 10.4477153,4 11,4 L11,4 L12.4728439,3.99982795 C11.3532024,2.74756017 9.74165701,2 8,2 C4.6862915,2 2,4.6862915 2,8 C2,11.3137085 4.6862915,14 8,14 C10.9934244,14 13.5180036,11.7939506 13.9388219,8.86095015 C14.0172588,8.31426369 14.5240215,7.93467247 15.0707079,8.01310943 C15.6173944,8.09154639 15.9969856,8.59830905 15.9185487,9.14499551 C15.3569248,13.0593765 11.991707,16 8,16 C3.581722,16 -2.7533531e-14,12.418278 -2.7533531e-14,8 C-2.7533531e-14,3.581722 3.581722,0 8,0 C10.3407793,0 12.5069262,1.01420363 14.0006324,2.70825017 L14,1 C14,0.44771525 14.4477153,0 15,0 Z"
			fill="currentColor"
		></path>
	</g>
</svg>
