<?xml version="1.0" encoding="UTF-8"?>
<svg
	width="16px"
	height="12px"
	viewBox="0 0 16 12"
	version="1.1"
	xmlns="http://www.w3.org/2000/svg"
	xmlns:xlink="http://www.w3.org/1999/xlink"
>
	<g stroke="none" stroke-width="1" fill="none" fill-rule="evenodd">
		<g transform="translate(-474.000000, -536.000000)" fill="currentColor">
			<g transform="translate(30.000000, 160.000000)">
				<g transform="translate(432.000000, 364.000000)">
					<g transform="translate(12.000000, 10.000000)">
						<path
							d="M5.29289322,2.29289322 C5.68341751,1.90236893 6.31658249,1.90236893 6.70710678,2.29289322 C7.06759074,2.65337718 7.09532028,3.22060824 6.79029539,3.61289944 L6.70710678,3.70710678 L3.413,7 L15,7 C15.5522847,7 16,7.44771525 16,8 C16,8.55228475 15.5522847,9 15,9 L3.415,9 L6.70710678,12.2928932 C7.06759074,12.6533772 7.09532028,13.2206082 6.79029539,13.6128994 L6.70710678,13.7071068 C6.34662282,14.0675907 5.77939176,14.0953203 5.38710056,13.7902954 L5.29289322,13.7071068 L0.292893219,8.70710678 C-0.0675907428,8.34662282 -0.0953202783,7.77939176 0.209704612,7.38710056 L0.292893219,7.29289322 L5.29289322,2.29289322 Z"
						></path>
					</g>
				</g>
			</g>
		</g>
	</g>
</svg>
