<?xml version="1.0" standalone="no"?><!DOCTYPE svg PUBLIC "-//W3C//DTD SVG 1.1//EN" "http://www.w3.org/Graphics/SVG/1.1/DTD/svg11.dtd">
<svg
	t="1647332064881"
	class="icon"
	viewBox="0 0 1024 1024"
	version="1.1"
	xmlns="http://www.w3.org/2000/svg"
	p-id="7863"
	xmlns:xlink="http://www.w3.org/1999/xlink"
	width="16"
	height="16"
>
	<defs><style type="text/css"></style></defs>
	<path
		d="M277.333333 938.666667a192 192 0 1 1 0-384 192 192 0 0 1 0 384z m469.333334 0a192 192 0 1 1 0-384 192 192 0 0 1 0 384z m-469.333334-469.333334a192 192 0 1 1 0-384 192 192 0 0 1 0 384z m469.333334 0a192 192 0 1 1 0-384 192 192 0 0 1 0 384z m0-85.333333a106.666667 106.666667 0 1 0 0-213.333333 106.666667 106.666667 0 0 0 0 213.333333z m-469.333334 0a106.666667 106.666667 0 1 0 0-213.333333 106.666667 106.666667 0 0 0 0 213.333333z m469.333334 469.333333a106.666667 106.666667 0 1 0 0-213.333333 106.666667 106.666667 0 0 0 0 213.333333z m-469.333334 0a106.666667 106.666667 0 1 0 0-213.333333 106.666667 106.666667 0 0 0 0 213.333333z"
	></path>
</svg>
