<?xml version="1.0" standalone="no"?><!DOCTYPE svg PUBLIC "-//W3C//DTD SVG 1.1//EN" "http://www.w3.org/Graphics/SVG/1.1/DTD/svg11.dtd">
<svg
	t="1647315347857"
	class="icon"
	viewBox="0 0 1025 1024"
	version="1.1"
	xmlns="http://www.w3.org/2000/svg"
	p-id="5455"
	xmlns:xlink="http://www.w3.org/1999/xlink"
	width="16"
	height="16"
>
	<defs><style type="text/css"></style></defs>
	<path
		d="M214.102827 85.333333L43.43616 938.666667h469.333333V85.333333z"
		opacity=".16"
	></path>
	<path
		d="M1024.769493 930.133333l-170.666666-853.333333c-4.266667-19.2-21.333333-34.133333-42.666667-34.133333H214.102827c-21.333333 0-38.4 14.933333-42.666667 34.133333l-170.666667 853.333333c-2.133333 12.8 0 25.6 8.533334 36.266667 8.533333 8.533333 21.333333 14.933333 34.133333 14.933333h938.666667c12.8 0 25.6-6.4 32-14.933333 8.533333-10.666667 12.8-23.466667 10.666666-36.266667zM94.63616 896l153.6-768H470.102827c0 23.466667 19.2 42.666667 42.666666 42.666667s42.666667-19.2 42.666667-42.666667h221.866667l153.6 768H94.63616z"
	></path>
	<path
		d="M512.769493 256c-23.466667 0-42.666667 19.2-42.666666 42.666667v85.333333c0 23.466667 19.2 42.666667 42.666666 42.666667s42.666667-19.2 42.666667-42.666667v-85.333333c0-23.466667-19.2-42.666667-42.666667-42.666667zM512.769493 554.666667c-23.466667 0-42.666667 19.2-42.666666 42.666666v170.666667c0 23.466667 19.2 42.666667 42.666666 42.666667s42.666667-19.2 42.666667-42.666667v-170.666667c0-23.466667-19.2-42.666667-42.666667-42.666666z"
	></path>
</svg>
