<?xml version="1.0" standalone="no"?><!DOCTYPE svg PUBLIC "-//W3C//DTD SVG 1.1//EN" "http://www.w3.org/Graphics/SVG/1.1/DTD/svg11.dtd">
<svg
	t="1656747369337"
	class="icon"
	viewBox="0 0 1024 1024"
	version="1.1"
	xmlns="http://www.w3.org/2000/svg"
	p-id="2288"
	xmlns:xlink="http://www.w3.org/1999/xlink"
	width="16"
	height="16"
>
	<defs><style type="text/css"></style></defs>
	<path
		d="M768 896H256c-72.533333 0-128-55.466667-128-128V256c0-72.533333 55.466667-128 128-128h512c72.533333 0 128 55.466667 128 128v512c0 72.533333-55.466667 128-128 128zM256 213.333333c-25.6 0-42.666667 17.066667-42.666667 42.666667v512c0 25.6 17.066667 42.666667 42.666667 42.666667h512c25.6 0 42.666667-17.066667 42.666667-42.666667V256c0-25.6-17.066667-42.666667-42.666667-42.666667H256z"
		fill="currentColor"
		p-id="2289"
	></path>
	<path
		d="M853.333333 469.333333H170.666667c-25.6 0-42.666667-17.066667-42.666667-42.666666s17.066667-42.666667 42.666667-42.666667h682.666666c25.6 0 42.666667 17.066667 42.666667 42.666667s-17.066667 42.666667-42.666667 42.666666z"
		fill="currentColor"
		p-id="2290"
	></path>
	<path
		d="M426.666667 896c-25.6 0-42.666667-17.066667-42.666667-42.666667V170.666667c0-25.6 17.066667-42.666667 42.666667-42.666667s42.666667 17.066667 42.666666 42.666667v682.666666c0 25.6-17.066667 42.666667-42.666666 42.666667z"
		fill="currentColor"
		p-id="2291"
	></path>
</svg>
