<?xml version="1.0" standalone="no"?><!DOCTYPE svg PUBLIC "-//W3C//DTD SVG 1.1//EN" "http://www.w3.org/Graphics/SVG/1.1/DTD/svg11.dtd">
<svg
	t="1647332048851"
	class="icon"
	viewBox="0 0 1024 1024"
	version="1.1"
	xmlns="http://www.w3.org/2000/svg"
	p-id="7034"
	xmlns:xlink="http://www.w3.org/1999/xlink"
	width="16"
	height="16"
>
	<defs><style type="text/css"></style></defs>
	<path
		d="M149.333 736a42.667 42.667 0 1 1 0 85.333 42.667 42.667 0 0 1 0-85.333z m748.8 10.667c4.694 0 8.534 3.84 8.534 8.533v46.933a8.533 8.533 0 0 1-8.534 8.534H275.2a8.533 8.533 0 0 1-8.533-8.534V755.2c0-4.693 3.84-8.533 8.533-8.533h622.933z m-748.8-288a42.667 42.667 0 1 1 0 85.333 42.667 42.667 0 0 1 0-85.333z m748.8 10.666c4.694 0 8.534 3.84 8.534 8.534V524.8a8.533 8.533 0 0 1-8.534 8.533H275.2a8.533 8.533 0 0 1-8.533-8.533v-46.933c0-4.694 3.84-8.534 8.533-8.534h622.933z m-748.8-288a42.667 42.667 0 1 1 0 85.334 42.667 42.667 0 0 1 0-85.334zM898.133 192c4.694 0 8.534 3.84 8.534 8.533v46.934a8.533 8.533 0 0 1-8.534 8.533H275.2a8.533 8.533 0 0 1-8.533-8.533v-46.934c0-4.693 3.84-8.533 8.533-8.533h622.933z"
	></path>
</svg>
